# File created by Blade
# Date/Time:  Mon Sep 29 17:58:21 2014
# Frame Rate: 120.000 fps
#------------------------------------------------------
:FULLY-SPECIFIED
:DEGREES
2857
root -0.044970 2.923108 -8.026007 -29.754406 0.296197 1.309377
Spine 37.679634 -25.764361 -6.227627
Head -28.989417 15.475143 3.417069
LeftShoulder 16.790250 -17.236195 20.507210
LeftArm 70.605856 17.339361 -54.068765
LeftForeArm 15.246079 0.000000 19.800645
LeftHand -23.382229 -0.000000 -16.236861
LeftHandThumb1 -26.253704 0.000000 33.147579
RightShoulder -13.842626 14.515787 -30.698837
RightArm -22.013350 -27.597169 101.142738
RightForeArm 22.119981 -0.000000 9.795199
RightHand -19.681658 0.000000 -58.525559
RightHandThumb1 -24.326973 -0.000000 -32.862282
LeftUpLeg -59.520875 1.591497 -1.786899
LeftLeg 5.834055 -0.000000 -0.000000
LeftFoot 31.338644 8.599310 -12.490798
LeftToeBase 15.075319 -0.000000 -0.000000
RightUpLeg -94.431347 25.030848 38.222836
RightLeg 121.610571 -0.000000 -0.000000
RightFoot 6.105107 -8.398605 -5.557217
RightToeBase 4.240088 -0.000000 -0.000000
2858
root -0.052852 2.911431 -8.011096 -29.810192 0.462935 1.270343
Spine 37.469765 -25.236290 -5.855866
Head -28.469565 15.957328 2.999935
LeftShoulder 16.725005 -17.350683 20.400662
LeftArm 71.559900 17.271273 -54.603844
LeftForeArm 15.353381 -0.000000 20.239774
LeftHand -23.436176 -0.000000 -16.553930
LeftHandThumb1 -26.253704 0.000000 33.147579
RightShoulder -13.695258 14.305406 -30.718555
RightArm -22.390413 -27.410456 101.446317
RightForeArm 22.763512 -0.000000 9.506724
RightHand -19.685034 0.000000 -58.524591
RightHandThumb1 -24.326973 -0.000000 -32.862282
LeftUpLeg -59.497166 1.313043 -1.664387
LeftLeg 5.871685 -0.000000 -0.000000
LeftFoot 31.354138 8.555052 -12.441434
LeftToeBase 15.181165 -0.000000 -0.000000
RightUpLeg -94.448241 24.688032 38.284184
RightLeg 121.653359 -0.000000 -0.000000
RightFoot 5.969679 -8.187231 -5.668602
RightToeBase 4.288504 -0.000000 -0.000000
2859
root -0.075252 2.897220 -8.001104 -29.795252 0.564700 1.126563
Spine 37.178495 -24.766051 -5.341003
Head -27.960266 16.338559 2.499312
LeftShoulder 16.612542 -17.936541 20.416707
LeftArm 72.008435 17.600087 -55.115993
LeftForeArm 15.338774 -0.000000 21.088159
LeftHand -23.809785 -0.000000 -16.327767
LeftHandThumb1 -26.253704 0.000000 33.147579
RightShoulder -13.492869 14.224767 -30.732957
RightArm -22.913747 -27.122855 101.741958
RightForeArm 23.349033 -0.000000 9.297285
RightHand -19.677450 -0.000000 -58.523033
RightHandThumb1 -24.326973 -0.000000 -32.862282
LeftUpLeg -59.565128 1.053629 -1.390545
LeftLeg 5.916927 -0.000000 -0.000000
LeftFoot 31.418719 8.488744 -12.433301
LeftToeBase 15.179504 -0.000000 -0.000000
RightUpLeg -94.115159 24.538369 39.348254
RightLeg 121.543785 -0.000000 -0.000000
RightFoot 6.243499 -10.485567 -5.956245
RightToeBase 4.109780 -0.000000 -0.000000
2860
root -0.089602 2.889371 -7.983264 -29.827941 0.716005 0.999009
Spine 36.909315 -24.315513 -4.872612
Head -27.352761 16.653479 2.157973
LeftShoulder 16.564351 -18.570112 20.446096
LeftArm 72.461249 17.952160 -55.437782
LeftForeArm 15.263956 -0.000000 21.874705
LeftHand -23.864953 -0.000000 -16.150793
LeftHandThumb1 -26.253704 0.000000 33.147579
RightShoulder -13.356289 14.175502 -30.758626
RightArm -23.490989 -26.929342 102.071913
RightForeArm 23.987375 -0.000000 9.080785
RightHand -19.668723 -0.000000 -58.505129
RightHandThumb1 -24.326973 -0.000000 -32.862282
LeftUpLeg -59.556293 0.724801 -1.140034
LeftLeg 5.928042 -0.000000 -0.000000
LeftFoot 31.445394 8.517623 -12.394953
LeftToeBase 15.224726 -0.000000 -0.000000
RightUpLeg -94.047423 24.247255 39.946116
RightLeg 121.540575 -0.000000 -0.000000
RightFoot 6.481855 -11.578555 -5.372530
RightToeBase 3.898782 -0.000000 -0.000000
2861
root -0.098361 2.879744 -7.962509 -29.872177 0.953594 0.991364
Spine 36.668432 -23.969465 -4.669969
Head -26.725536 16.972647 1.819846
LeftShoulder 16.278320 -18.680621 20.523828
LeftArm 73.526711 18.131546 -55.153214
LeftForeArm 15.210766 -0.000000 22.588346
LeftHand -23.689734 0.000000 -15.901746
LeftHandThumb1 -26.253704 0.000000 33.147579
RightShoulder -13.207846 13.984224 -30.735490
RightArm -23.867202 -26.818939 102.357379
RightForeArm 24.590321 -0.000000 8.897337
RightHand -19.671578 0.000000 -58.574258
RightHandThumb1 -24.326973 -0.000000 -32.862282
LeftUpLeg -59.529187 0.371297 -1.040290
LeftLeg 5.965901 -0.000000 -0.000000
LeftFoot 31.447172 8.343646 -12.141080
LeftToeBase 15.218156 -0.000000 -0.000000
RightUpLeg -94.323841 23.919670 39.763588
RightLeg 121.693878 -0.000000 -0.000000
RightFoot 6.538791 -10.967554 -4.779439
RightToeBase 3.917436 -0.000000 -0.000000
2862
root -0.114019 2.868350 -7.945990 -29.866644 1.101817 0.975593
Spine 36.360686 -23.564005 -4.399860
Head -26.073095 17.214001 1.534514
LeftShoulder 16.027626 -18.802401 20.570947
LeftArm 74.455613 18.268634 -54.925890
LeftForeArm 15.498486 -0.000000 23.431578
LeftHand -23.369713 -0.000000 -15.520691
LeftHandThumb1 -26.253704 0.000000 33.147579
RightShoulder -13.041749 13.884077 -30.714966
RightArm -24.379683 -26.613609 102.648027
RightForeArm 25.213205 -0.000000 8.801669
RightHand -19.564250 0.000000 -58.600922
RightHandThumb1 -24.326973 -0.000000 -32.862282
LeftUpLeg -59.566637 0.135047 -0.926232
LeftLeg 5.977488 -0.000000 -0.000000
LeftFoot 31.553437 8.441391 -12.187953
LeftToeBase 15.179598 -0.000000 -0.000000
RightUpLeg -94.303519 23.720778 39.949722
RightLeg 121.724467 -0.000000 -0.000000
RightFoot 6.384646 -11.149114 -4.888450
RightToeBase 4.136241 -0.000000 -0.000000
2863
root -0.130022 2.856402 -7.930814 -29.853818 1.218919 0.966791
Spine 36.032039 -23.188333 -4.144273
Head -25.379898 17.462327 1.252916
LeftShoulder 15.677849 -18.611430 20.701978
LeftArm 75.687685 18.240945 -54.298410
LeftForeArm 15.777319 0.000000 24.352169
LeftHand -23.172150 -0.000000 -15.262079
LeftHandThumb1 -26.253704 0.000000 33.147579
RightShoulder -12.831085 13.710136 -30.679831
RightArm -24.813960 -26.355179 102.880645
RightForeArm 25.490788 0.000000 8.811548
RightHand -19.630323 -0.000000 -58.669021
RightHandThumb1 -24.326973 -0.000000 -32.862282
LeftUpLeg -59.616062 -0.052491 -0.833591
LeftLeg 6.013341 -0.000000 -0.000000
LeftFoot 31.616416 8.451903 -12.261952
LeftToeBase 15.019894 -0.000000 -0.000000
RightUpLeg -94.336001 23.522211 40.015497
RightLeg 121.752595 -0.000000 -0.000000
RightFoot 6.266543 -10.948695 -5.060209
RightToeBase 4.320001 -0.000000 -0.000000
